# xmcd
# 
# Track frame offsets:
#     150
#     15325
#     26425
#     39787
#     50850
#     60675
#     77562
#     89200
#     126900
#     138437
#     150225
#     168712
#     186000
#     205475
#     217000
#     229237
# 
# Disc length: 3213
# 
# Revision: 0
# Processed by: cddbd v1.5.2PL0 Copyright (c) Steve Scherf et al.
# Submitted via: fre:ac v1.1beta1pre3
# 
DISCID=dc0c8b10
DTITLE=Various Artist - 最佳西洋名謠精選輯4
DYEAR=0
DGENRE=Country
TTITLE0=合輯 - Day Is Done
TTITLE1=合輯 - Time in A Bottle
TTITLE2=合輯 - The Cruel War
TTITLE3=合輯 - Yellow Bird
TTITLE4=合輯 - King of The Road
TTITLE5=合輯 - Monday Morning
TTITLE6=合輯 - Homeward Bound
TTITLE7=合輯 - American Pie
TTITLE8=合輯 - I'll Have To Say I Love You in A Song 
TTITLE9=合輯 - Joe Hill
TTITLE10=合輯 - Nobody's Child
TTITLE11=合輯 - Anak
TTITLE12=合輯 - Love Me Tender 
TTITLE13=合輯 - When A Child Is Born
TTITLE14=合輯 - Langhty In The Rain
TTITLE15=合輯 - El Condor Passa
EXTD=
EXTT0=
EXTT1=
EXTT2=
EXTT3=
EXTT4=
EXTT5=
EXTT6=
EXTT7=
EXTT8=
EXTT9=
EXTT10=
EXTT11=
EXTT12=
EXTT13=
EXTT14=
EXTT15=
PLAYORDER=
